# xmcd
#
# Track frame offsets: 
#        150
#        5827
#        12477
#        17976
#        24472
#        34899
#        48002
#        53895
#        63378
#        68606
#        72493
#        81409
#        87723
#        93583
#        102184
#        105946
#        113048
#        129251
#        136593
#        142964
#        146618
#        153298
#        162066
#        172533
#        180494
#
# Disc length: 2493 seconds
#
# Revision: 0
# Processed by: cddbd v1.5.2PL0 Copyright (c) Steve Scherf et al.
# Submitted via: ExactAudioCopyFreeDBPlugin 1.0
#
DISCID=4109bb19
DTITLE=あそびうた伝 春夏秋冬虎の巻 - あそびうた伝 春夏秋冬虎の巻 Disc 2
DYEAR=2016
DGENRE=Folk
TTITLE0=くいしんぼゴリラのうた
TTITLE1=おすしすしすし
TTITLE2=ぎっちょう米つけ
TTITLE3=十五夜さんのもちつき
TTITLE4=ツルカメジャン
TTITLE5=おねがいおまわりさん
TTITLE6=しごとはいそがしい
TTITLE7=シェイプアップ サンタさん
TTITLE8=おしょしょしょ正月は
TTITLE9=ね･うし･とら･う (十二支)
TTITLE10=おにのパンツ
TTITLE11=こっちむいて赤おにどん
TTITLE12=やきいもグーチーパー
TTITLE13=マラソンゆきだるま
TTITLE14=もちっこやいて
TTITLE15=ゆきとつらら
TTITLE16=さよならまたね
TTITLE17=たんじょうびイエイ
TTITLE18=まるたけえびす (京都の通り名)
TTITLE19=いちじくにんじん
TTITLE20=ずいずいずっころばし
TTITLE21=でんでらりゅうば
TTITLE22=とおりゃんせ
TTITLE23=ぼうが一本あったとさ
TTITLE24=すうじのうた
EXTD=
EXTT0=
EXTT1=
EXTT2=
EXTT3=
EXTT4=
EXTT5=
EXTT6=
EXTT7=
EXTT8=
EXTT9=
EXTT10=
EXTT11=
EXTT12=
EXTT13=
EXTT14=
EXTT15=
EXTT16=
EXTT17=
EXTT18=
EXTT19=
EXTT20=
EXTT21=
EXTT22=
EXTT23=
EXTT24=
PLAYORDER=
